<svg xmlns="http://www.w3.org/2000/svg" xmlns:graphite="https://graphite.art" viewBox="0 0 512 512" width="512" height="512"><defs><clipPath id="artboard-18229358111242810896"><rect x="0" y="0" width="512" height="512" /></clipPath></defs><g>
<g clip-path="url(#artboard-18229358111242810896)">
	<g>
		<path d="M256,0 C397.2569031114276,0 512,114.74309688857241 512,256 C512,397.2569031114276 397.2569031114276,512 256,512 C114.74309688857241,512 0,397.2569031114276 0,256 C0,114.74309688857241 114.74309688857241,0 256,0 Z" fill="#000000"/>
	</g>
	<g>
		<path d="M392.53333333333336,239.8400000000001 C392.16468750000007,164.78762369791676 331.134296875,103.30666666666676 256,103.30666666666676 C180.8657096354167,103.30666666666676 119.83530598958336,164.78762369791676 119.4666666666667,239.8400000000001 C119.4666666666667,239.8400000000001 153.60000000000002,239.8400000000001 153.60000000000002,239.8400000000001 C164.90496093750005,239.8400000000001 174.08000000000004,249.0150390625001 174.08000000000004,260.3200000000001 C174.08000000000004,260.3200000000001 174.08000000000004,355.89333333333343 174.08000000000004,355.89333333333343 C174.08000000000004,367.1982812500001 164.90496093750005,376.37333333333345 153.60000000000002,376.37333333333345 C153.60000000000002,376.37333333333345 112.64000000000003,376.37333333333345 112.64000000000003,376.37333333333345 C101.3350398763021,376.37333333333345 92.16000000000003,367.1982812500001 92.16000000000003,355.89333333333343 C92.16000000000003,355.89333333333343 92.16000000000003,239.8400000000001 92.16000000000003,239.8400000000001 C92.5286400095622,149.7143489583334 165.8060807291667,76.00000000000009 256,76.00000000000009 C346.19393229166667,76.00000000000009 419.4713541666667,149.7143489583334 419.84000000000003,239.8400000000001 C419.84000000000003,239.8400000000001 419.84000000000003,355.89333333333343 419.84000000000003,355.89333333333343 C419.84000000000003,367.1982812500001 410.66494791666673,376.37333333333345 399.36000000000007,376.37333333333345 C399.36000000000007,376.37333333333345 358.40000000000003,376.37333333333345 358.40000000000003,376.37333333333345 C347.09505208333337,376.37333333333345 337.9200000000001,367.1982812500001 337.9200000000001,355.89333333333343 C337.9200000000001,355.89333333333343 337.9200000000001,260.3200000000001 337.9200000000001,260.3200000000001 C337.9200000000001,249.0150390625001 347.09505208333337,239.8400000000001 358.40000000000003,239.8400000000001 C358.40000000000003,239.8400000000001 392.53333333333336,239.8400000000001 392.53333333333336,239.8400000000001 C392.53333333333336,239.8400000000001 392.53333333333336,239.8400000000001 392.53333333333336,239.8400000000001 Z" fill="#ffffff"/>
	</g>
</g></g></svg>
